<?xml version="1.0" encoding="utf-8"?>
<!-- Generator: Adobe Illustrator 24.0.0, SVG Export Plug-In . SVG Version: 6.00 Build 0)  -->
<svg version="1.1" id="Layer_1" xmlns="http://www.w3.org/2000/svg" xmlns:xlink="http://www.w3.org/1999/xlink" x="0px" y="0px"
	 viewBox="0 0 16 16" style="enable-background:new 0 0 16 16;" xml:space="preserve">
<style type="text/css">
	.st0{display:none;}
</style>
<rect x="-0.01" y="0.08" class="st0" width="16" height="16"/>
<g>
	<path d="M2.7,9.38v2.89H0.81v-8.4h2.96c2.12,0,3.18,0.89,3.18,2.68c0,0.84-0.3,1.53-0.91,2.05C5.43,9.12,4.62,9.38,3.6,9.38H2.7z
		 M2.7,5.33v2.62h0.74c1.01,0,1.51-0.44,1.51-1.32c0-0.86-0.5-1.29-1.51-1.29H2.7z"/>
	<path d="M15.16,12.28h-2.39l-2.45-3.65C10.28,8.56,10.2,8.4,10.1,8.16h-0.03v4.11H8.18v-8.4h1.89v3.97h0.03
		c0.05-0.11,0.13-0.27,0.23-0.47l2.32-3.5h2.26l-2.93,4.01L15.16,12.28z"/>
</g>
</svg>
